<?xml version="1.0" standalone="no"?>
<!DOCTYPE svg PUBLIC "-//W3C//DTD SVG 20010904//EN"
 "http://www.w3.org/TR/2001/REC-SVG-20010904/DTD/svg10.dtd">
<svg version="1.0" xmlns="http://www.w3.org/2000/svg"
 width="858.000000pt" height="858.000000pt" viewBox="0 0 858.000000 858.000000"
 preserveAspectRatio="xMidYMid meet">
<metadata>
Created by potrace 1.14, written by Peter Selinger 2001-2017
</metadata>
<g transform="translate(0.000000,858.000000) scale(0.100000,-0.100000)"
fill="#000000" stroke="none">
<path d="M4184 8452 c-54 -39 -890 -613 -920 -632 -13 -8 -142 -96 -286 -195
-244 -168 -471 -323 -698 -479 -52 -35 -147 -100 -210 -143 -63 -44 -178 -122
-255 -175 -77 -53 -224 -154 -327 -224 -103 -71 -273 -187 -378 -259 -317
-216 -307 -207 -304 -246 2 -19 5 -108 8 -199 3 -91 8 -221 11 -290 3 -69 7
-192 10 -275 3 -82 7 -204 10 -270 6 -140 13 -348 20 -560 3 -82 7 -202 10
-265 2 -63 7 -185 10 -270 3 -85 7 -207 10 -270 2 -63 7 -189 10 -280 3 -91 7
-212 10 -270 5 -124 16 -396 20 -530 2 -52 6 -187 10 -300 4 -113 8 -231 9
-263 1 -31 7 -62 12 -67 6 -6 89 -50 186 -100 167 -85 177 -88 192 -71 9 10
16 23 16 29 0 7 4 12 10 12 5 0 17 14 25 30 9 17 22 39 30 48 8 9 21 25 28 36
12 16 16 17 40 5 l26 -14 -200 -285 c-110 -157 -207 -294 -214 -305 -27 -37
-310 -440 -358 -510 -27 -39 -66 -95 -88 -125 -21 -30 -64 -92 -96 -138 -32
-46 -75 -107 -96 -135 -21 -29 -43 -59 -48 -69 -8 -15 53 -16 845 -16 l854 0
112 182 c62 99 123 197 135 216 29 44 303 482 334 533 12 20 27 37 32 37 13 0
69 -29 69 -35 0 -3 -27 -47 -60 -98 -32 -50 -56 -95 -52 -98 14 -12 1840 -929
1851 -929 6 0 82 49 168 108 267 183 386 264 448 306 33 23 62 43 65 46 3 3
13 10 22 15 10 6 102 68 205 139 103 72 231 159 283 195 52 35 129 88 170 116
41 28 120 82 175 120 55 38 127 87 160 110 33 23 112 77 175 120 63 43 149
101 190 130 41 28 170 116 285 195 116 79 256 176 312 215 56 38 188 129 293
200 105 72 248 169 318 217 131 89 164 116 157 127 -2 4 -6 94 -10 201 -3 107
-8 240 -10 295 -2 55 -7 177 -10 270 -3 94 -8 220 -10 281 -2 62 -7 185 -10
275 -3 90 -8 209 -10 264 -2 55 -7 172 -10 260 -8 245 -21 586 -30 825 -3 74
-8 198 -10 275 -3 77 -7 208 -10 290 -6 161 -10 256 -20 545 -8 193 -12 303
-14 332 -1 16 -172 105 -751 393 l-145 72 -48 -66 c-26 -36 -58 -79 -70 -95
l-23 -30 -32 19 c-18 11 -32 23 -32 27 0 4 54 83 120 176 66 94 120 172 120
174 0 3 -215 4 -477 4 l-478 -2 -107 54 c-60 29 -108 55 -108 56 0 1 276 2
613 2 336 -1 619 0 627 2 16 4 75 81 62 83 -4 1 -342 2 -752 3 l-745 2 -52 29
c-29 16 -53 32 -53 35 0 3 16 29 35 59 19 29 35 55 35 58 0 3 9 18 21 34 11
16 19 34 17 39 -2 5 -174 95 -383 201 -689 347 -973 489 -977 489 -2 0 -22
-13 -44 -28z"/>
<path d="M6083 8282 l-102 -3 -47 -87 c-71 -132 -197 -347 -206 -350 -4 -2 -8
-8 -8 -14 0 -5 -12 -28 -27 -51 -36 -55 -50 -76 -67 -107 l-14 -25 780 0 780
0 64 90 c83 118 74 104 216 301 68 93 137 187 152 207 l28 37 -243 0 c-134 0
-460 1 -724 3 -264 1 -526 1 -582 -1z"/>
</g>
</svg>
