<svg xmlns="http://www.w3.org/2000/svg" viewBox="0 0 179 61"><g fill="none"><rect width="178" height="60" x=".5" y=".5" stroke="#D1D1D1" rx="9"/><path fill="#D1D1D1" d="M75.4 39.8h3.3l-1.6-5-1.7 5Zm.2-8h3l4.6 12.8h-3l-.8-2.6h-4.7l-.9 2.6H71l4.6-12.8Zm13.8 3.4h2.7l-3.4 9.4H86l-3.4-9.4h2.7l2 7 2-7Zm9 4.8a2.9 2.9 0 0 1-1.1.4l-.6.1c-.5.1-.9.2-1.1.4-.4.2-.6.5-.6 1 0 .4.1.7.4 1l.8.2c.5 0 1-.2 1.5-.5.4-.3.7-.8.7-1.7V40Zm-1.5-1 1-.3c.3-.1.5-.3.5-.7a1 1 0 0 0-.4-.8l-1.2-.2c-.6 0-1 .2-1.2.4l-.4 1h-2.4c0-1 .3-1.6.7-2.1.7-.9 1.8-1.3 3.4-1.3 1 0 2 .2 2.8.6.8.5 1.2 1.2 1.2 2.4v4.3a42.9 42.9 0 0 0 .1 1.8l.4.2v.4h-2.7l-.2-.5v-.6l-1.2 1c-.5.2-1.1.4-1.8.4-.9 0-1.6-.2-2.2-.7-.5-.5-.8-1.2-.8-2.1 0-1.2.5-2 1.4-2.5A6 6 0 0 1 96 39l.9-.1Zm8.4 5.7h-2.5V31.8h2.5v12.8Zm7.3-4.6a2.9 2.9 0 0 1-1.2.4l-.5.1c-.5.1-1 .2-1.1.4-.4.2-.6.5-.6 1 0 .4.1.7.3 1l.9.2c.5 0 1-.2 1.5-.5.4-.3.7-.8.7-1.7v-1ZM111 39l1-.3c.3-.1.5-.3.5-.7 0-.3-.2-.6-.4-.8L111 37c-.6 0-1 .2-1.3.4l-.3 1H107c0-1 .3-1.6.7-2.1.6-.9 1.8-1.3 3.4-1.3 1 0 2 .2 2.7.6.8.5 1.3 1.2 1.3 2.4v4.3a42.9 42.9 0 0 0 .1 1.8l.4.2v.4h-2.7l-.2-.5v-.6l-1.2 1c-.6.2-1.2.4-1.8.4-.9 0-1.6-.2-2.2-.7-.5-.5-.8-1.2-.8-2.1 0-1.2.4-2 1.3-2.5a6 6 0 0 1 2.2-.6l.9-.1Zm11-4c1 0 1.9.3 2.5.8.6.5 1 1.4 1 2.5v6.4H123V39l-.2-1.2c-.3-.5-.7-.7-1.4-.7-.9 0-1.4.3-1.8 1l-.2 1.5v5.1h-2.5v-9.4h2.4v1.4c.3-.5.6-.9 1-1.1.4-.4 1-.6 1.9-.6Zm11 3.6-.3-1c-.3-.3-.7-.5-1.3-.5-.9 0-1.4.4-1.7 1.3-.2.4-.3 1-.3 1.7s0 1.3.3 1.7c.3.8.8 1.2 1.6 1.2.6 0 1-.2 1.3-.5.2-.3.4-.7.4-1.2h2.5a4.1 4.1 0 0 1-4.2 3.7c-1.6 0-2.7-.4-3.4-1.3-.7-1-1-2-1-3.5 0-1.7.3-3 1.1-3.8.8-1 1.9-1.4 3.3-1.4a5 5 0 0 1 3 .8c.7.6 1.1 1.5 1.3 2.8H133Zm9.2-3.6a4 4 0 0 1 1.6.3 2.8 2.8 0 0 1 1.6 2l.1 1.9v5.5H143V39c0-.6-.1-1-.3-1.3-.2-.4-.6-.6-1.3-.6a2 2 0 0 0-1.5.6 3 3 0 0 0-.5 1.9v5.1H137V31.9h2.5v4.5c.4-.6.8-1 1.3-1.2.4-.2 1-.3 1.5-.3Zm9 2c-.6 0-1 .2-1.3.6-.3.3-.5.8-.6 1.4h3.8c0-.6-.2-1.1-.6-1.4-.3-.4-.8-.6-1.3-.6Zm0-2a5 5 0 0 1 2.2.4 4 4 0 0 1 1.5 1.4c.4.6.6 1.3.7 2l.1 1.9h-6.5c0 1 .4 1.6 1 2 .3.2.7.3 1.2.3s.9-.1 1.2-.4l.5-.7h2.5c0 .6-.4 1.2-.9 1.7-.8 1-2 1.4-3.4 1.4-1.2 0-2.3-.4-3.2-1.1-1-.8-1.4-2-1.4-3.8 0-1.7.4-3 1.3-3.8a4 4 0 0 1 3.2-1.3Zm-72-18.8h4.4a3 3 0 0 1 2.1.8c.5.5.8 1.1.8 2a3 3 0 0 1-.7 2c-.5.6-1.2.9-2.2.9h-3v4h-1.4v-9.7Zm6 2.8c0-.7-.3-1.2-.8-1.4-.3-.2-.7-.2-1.2-.2h-2.7v3.3h2.7c.6 0 1 0 1.4-.3.4-.3.6-.7.6-1.4Zm5.4 6.2c.8 0 1.3-.3 1.6-.9.3-.6.4-1.3.4-2s0-1.2-.3-1.6c-.3-.7-.9-1-1.7-1-.8 0-1.3.3-1.6.8-.4.6-.5 1.3-.5 2 0 .8.1 1.4.5 2 .3.4.8.7 1.6.7Zm0-6.5c1 0 1.7.3 2.3.9.7.6 1 1.5 1 2.7 0 1.1-.3 2-.8 2.8-.6.8-1.5 1.1-2.6 1.1a3 3 0 0 1-2.4-1 4 4 0 0 1-.8-2.6c0-1.2.3-2.2.9-2.9a3 3 0 0 1 2.4-1Zm5 .2 1.4 5.6 1.4-5.6h1.3l1.4 5.5 1.5-5.5h1.2l-2.1 7h-1.3L99 20.5 97.6 26h-1.3l-2-7.1h1.3Zm12-.2a3.2 3.2 0 0 1 2.5 1.3c.3.3.4.8.5 1.2l.1 1.6h-5.2c0 .7.2 1.3.5 1.7.3.5.8.7 1.5.7a2 2 0 0 0 2-1.5h1.1l-.3 1a2.8 2.8 0 0 1-2 1.5h-.9a3 3 0 0 1-2.3-1c-.6-.6-.9-1.5-.9-2.6 0-1.2.3-2.1 1-2.8a3 3 0 0 1 2.4-1Zm1.9 3.2c0-.6-.2-1-.3-1.3-.4-.6-1-.8-1.7-.8a2 2 0 0 0-1.4.6c-.3.3-.5.8-.6 1.5h4Zm2.5-3h1.1V20l.7-.9a1.8 1.8 0 0 1 1.4-.5h.2V20a1.8 1.8 0 0 0-.4 0c-.6 0-1 .2-1.4.6a2 2 0 0 0-.4 1.3v4H112v-7Zm7.2-.2a3.2 3.2 0 0 1 2.5 1.3c.3.3.4.8.5 1.2l.1 1.6h-5.2c0 .7.2 1.3.5 1.7.3.5.8.7 1.5.7a2 2 0 0 0 2-1.5h1.1l-.3 1a2.8 2.8 0 0 1-2 1.5h-1a3 3 0 0 1-2.2-1c-.6-.6-.9-1.5-.9-2.6 0-1.2.3-2.1 1-2.8a3 3 0 0 1 2.4-1Zm1.9 3.2c0-.6-.2-1-.4-1.3-.3-.6-.8-.8-1.6-.8-.6 0-1 .2-1.4.6-.4.3-.6.8-.6 1.5h4Zm3.2.6c0 .8.1 1.4.5 2 .3.4.8.7 1.5.7.6 0 1-.3 1.4-.7a4 4 0 0 0 .5-2c0-1-.2-1.6-.5-2-.4-.5-.9-.7-1.4-.7-.6 0-1.1.2-1.5.7-.3.4-.5 1.1-.5 2Zm1.8-3.8c.5 0 1 .2 1.3.4.3.1.5.4.8.7V16h1.1v10h-1v-1l-1 1-1.4.2c-.8 0-1.4-.3-2-1-.6-.6-.9-1.5-.9-2.6 0-1 .3-2 .8-2.7.5-.8 1.3-1.2 2.3-1.2Zm8.1-2.5h1.2v3.5a2.6 2.6 0 0 1 2.1-1c1 0 1.6.3 2.2.9.5.6.8 1.5.8 2.7 0 1.1-.3 2-.8 2.8-.5.7-1.3 1-2.3 1-.5 0-1 0-1.3-.3l-.7-.7v.9h-1.2V16Zm3.2 9c.6 0 1-.3 1.4-.8a4.2 4.2 0 0 0 0-4c-.3-.4-.8-.6-1.4-.6a2 2 0 0 0-1.4.6c-.5.4-.7 1-.7 2 0 .6.1 1.2.3 1.6.3.7.9 1.1 1.8 1.1Zm8.7-6.3h1.3a427.7 427.7 0 0 0-2.2 6c-.7 1.9-1.2 3-1.5 3.4-.2.4-.7.6-1.4.6a3 3 0 0 1-.7-.1v-1.1a4.2 4.2 0 0 0 .7.1h.4l.3-.4.2-.5.3-.7-2.6-7.3h1.4l1.9 5.7 1.9-5.7ZM43 10.7a19.7 19.7 0 1 1 0 39.5 19.7 19.7 0 0 1 0-39.5ZM42 17c-.4.2-.7.7-1.3 1.7L30.6 36.3c-.6 1-.8 1.4-.8 1.8 0 .4.2.8.6 1 .3.2.7.2 1.5.2h6.7c.4-.2.8-.4 1-.7.4-.2.6-.6 1-1.3l6-10.6.7-1.4V24c0-.4-.2-.7-.5-1.3l-.2-.2-2.3-4c-.6-1-.8-1.5-1.2-1.7H42Zm8.2 13.2c-.3.2-.6.6-1.1 1.6l-2.7 4.6c-.6 1-.9 1.4-.8 1.8 0 .4.2.8.6 1 .3.2.8.2 1.7.2h5.6c1.1 0 1.7 0 2-.2.4-.2.6-.6.6-1s-.2-.9-.8-1.8l-2.7-4.6c-.5-1-.8-1.4-1.2-1.6-.3-.2-.8-.2-1.2 0Z"/></g></svg>